<svg width="100" height="100" viewBox="0 0 100 100" fill="none" xmlns="http://www.w3.org/2000/svg">
<rect width="100" height="100" rx="10" fill="white"/>
<path d="M43.568 35.652C43.8178 35.1554 44.2007 34.7379 44.6739 34.4462C45.1471 34.1545 45.6921 34 46.248 34H53.776C54.3334 34 54.8798 34.1553 55.3539 34.4486C55.828 34.7418 56.211 35.1613 56.46 35.66L57.63 38H61.01C62.3361 38 63.6078 38.5268 64.5455 39.4645C65.4832 40.4021 66.01 41.6739 66.01 43V50.522C64.8724 49.5782 63.5555 48.8742 62.1388 48.4525C60.722 48.0307 59.2346 47.9 57.766 48.068C57.29 46.1764 56.1397 44.5238 54.5311 43.4205C52.9226 42.3173 50.9665 41.8394 49.0304 42.0766C47.0944 42.3139 45.3116 43.2499 44.017 44.7089C42.7224 46.1679 42.0052 48.0495 42 50C41.9994 51.7861 42.5964 53.521 43.6961 54.9284C44.7958 56.3357 46.3348 57.3347 48.068 57.766C47.8257 59.91 48.2194 62.078 49.2 64H39.012C37.6859 64 36.4141 63.4732 35.4765 62.5355C34.5388 61.5979 34.012 60.3261 34.012 59V43C34.012 41.6739 34.5388 40.4021 35.4765 39.4645C36.4141 38.5268 37.6859 38 39.012 38H42.392L43.568 35.652ZM50 44C52.786 44 55.128 45.9 55.804 48.472C54.0741 48.9988 52.5004 49.9431 51.2218 51.2218C49.9431 52.5004 48.9987 54.0741 48.472 55.804C47.0636 55.431 45.839 54.5585 45.0265 53.3492C44.214 52.1399 43.8691 50.6763 44.0561 49.2315C44.2432 47.7866 44.9494 46.4591 46.043 45.4965C47.1366 44.534 48.5431 44.0021 50 44ZM68 59C68 61.3869 67.0518 63.6761 65.364 65.364C63.6761 67.0518 61.3869 68 59 68C56.613 68 54.3239 67.0518 52.636 65.364C50.9482 63.6761 50 61.3869 50 59C50 56.6131 50.9482 54.3239 52.636 52.636C54.3239 50.9482 56.613 50 59 50C61.3869 50 63.6761 50.9482 65.364 52.636C67.0518 54.3239 68 56.6131 68 59ZM60 55C60 54.7348 59.8946 54.4804 59.7071 54.2929C59.5196 54.1054 59.2652 54 59 54C58.7348 54 58.4804 54.1054 58.2929 54.2929C58.1053 54.4804 58 54.7348 58 55V58H55C54.7348 58 54.4804 58.1054 54.2929 58.2929C54.1053 58.4804 54 58.7348 54 59C54 59.2652 54.1053 59.5196 54.2929 59.7071C54.4804 59.8946 54.7348 60 55 60H58V63C58 63.2652 58.1053 63.5196 58.2929 63.7071C58.4804 63.8946 58.7348 64 59 64C59.2652 64 59.5196 63.8946 59.7071 63.7071C59.8946 63.5196 60 63.2652 60 63V60H63C63.2652 60 63.5196 59.8946 63.7071 59.7071C63.8946 59.5196 64 59.2652 64 59C64 58.7348 63.8946 58.4804 63.7071 58.2929C63.5196 58.1054 63.2652 58 63 58H60V55Z" fill="#616161"/>
</svg>
